<svg xmlns="http://www.w3.org/2000/svg" width="132" height="133" fill="none"><g filter="url(#a)"><path fill="#4B5320" d="M70.427 22.324c2.083-2.45 4.217-4.854 6.5-7.114 4.573-4.504 9.537-8.715 15.229-11.66-5.462 3.345-10.04 7.843-14.229 12.594a132.557 132.557 0 0 0-6.013 7.372 125.208 125.208 0 0 0-3.959 5.56h11.303c2.834-1.136 5.806-2.897 8.623-5.657 10.144-9.943 7-23.42 7-23.42C64.306 1.945 64.495 22.852 65.2 28.94a127.825 127.825 0 0 1 5.227-6.616Z"/><path fill="#4B5320" d="M60.387 29.077h2.72a76.694 76.694 0 0 0-3.323-9.088c-1.509-3.442-3.31-6.787-5.766-9.696 2.829 2.57 4.98 5.817 6.885 9.14.947 1.669 1.79 3.402 2.593 5.146a77.18 77.18 0 0 1 1.773 4.257c1.526-3.924 4.097-15.015-12.203-21.033 0 0-4.09 7.149.006 14.544 2.042 3.7 4.934 5.674 7.315 6.73Z"/><path fill="#FFC300" d="m72.676 123.095 1.079-10.155a124.306 124.306 0 0 1-15.594 10.155m-34.39-9.53 5.382-50.333 1.583 49.714c5.714-.626 11.55-1.578 17.396-2.938L59.44 61.832l-4.934 46.518c6.363-1.824 12.68-4.171 18.79-7.172.075-1.463.2-3.006.379-4.653l.63-5.938h1.837l2.243-21.067a24.415 24.415 0 0 1-.55-1.693c-.873-3.098-1.045-7.063-.534-11.882.734-6.93 2.122-11.997 4.153-15.215l.896-8.383H52.974l-9.707 42.377-.746-23.088c-.127-7.4-.339-13.833-.62-19.289H12.686L4 113.841c6.15.229 12.823.195 19.771-.276Z"/><path fill="#FFC300" d="m74.306 90.587-.631 5.938a82.223 82.223 0 0 0-.38 4.648c.615-.299 1.212-.631 1.82-.947l1.027-9.639"/><path fill="orange" d="M126.608 40.896c-1.022-3.012-3.489-5.502-7.407-7.482-3.919-1.985-8.813-2.972-14.677-2.972-5.364 0-10.034.907-14.016 2.714-3.982 1.813-6.994 4.326-9.036 7.545-.006.011-.012.017-.018.029l-3.069 28.79c.82 2.295 1.876 4.177 3.201 5.594 1.636 1.761 5.055 4.578 10.253 8.462a186.7 186.7 0 0 1 3.523 2.674 90.564 90.564 0 0 0 12.926-14.613s-3.069 7.137-10.253 16.781c1.676 1.423 2.846 2.56 3.489 3.403 1.222 1.64 1.543 5.135.975 10.482-.258 2.427-.82 4.257-1.687 5.491-.86 1.233-2.048 1.853-3.551 1.853-1.498 0-2.49-.488-2.978-1.463-.482-.97-.545-3.156-.183-6.558l1.004-9.427a124.88 124.88 0 0 1-21 20.489c1.005 3.511 3.426 6.425 7.293 8.726 4.016 2.393 9.048 3.586 15.09 3.586 5.501 0 10.441-1.033 14.813-3.11 4.366-2.077 7.436-4.641 9.214-7.711 1.773-3.058 3.001-7.825 3.695-14.286.947-8.893.327-15.341-1.859-19.34-2.18-4-7.963-9.117-17.349-15.354-3.276-2.163-5.204-4.016-5.79-5.548-.619-1.532-.774-3.815-.447-6.839.252-2.358.786-4.113 1.607-5.278.82-1.159 1.91-1.733 3.27-1.733 1.251 0 2.1.425 2.541 1.286.442.86.5 2.862.167 5.995l-.717 6.73h20.97l.378-3.586c.769-7.217.649-12.324-.372-15.33Z"/><path fill="#FFC300" d="M77.834 67.827c.16.597.356 1.148.551 1.693l3.07-28.79c-2.032 3.218-3.414 8.284-4.154 15.215-.511 4.82-.339 8.784.533 11.882Z"/></g><defs><filter id="a" width="131.478" height="133" x="0" y="0" color-interpolation-filters="sRGB" filterUnits="userSpaceOnUse"><feFlood flood-opacity="0" result="BackgroundImageFix"/><feColorMatrix in="SourceAlpha" result="hardAlpha" values="0 0 0 0 0 0 0 0 0 0 0 0 0 0 0 0 0 0 127 0"/><feOffset dy="4"/><feGaussianBlur stdDeviation="2"/><feComposite in2="hardAlpha" operator="out"/><feColorMatrix values="0 0 0 0 0 0 0 0 0 0 0 0 0 0 0 0 0 0 0.25 0"/><feBlend in2="BackgroundImageFix" result="effect1_dropShadow_502_458"/><feBlend in="SourceGraphic" in2="effect1_dropShadow_502_458" result="shape"/></filter></defs></svg>